<svg width="79" height="17" viewBox="0 0 79 17" fill="none" xmlns="http://www.w3.org/2000/svg">
<path d="M5.87426 10.293H8.66881L9.90396 11.8578L11.4274 13.6117L13.8641 16.6266H10.743L9.04224 14.5867L8.06801 13.1789L5.87426 10.293ZM6.92505 15.6773C5.62218 15.6773 4.44699 15.3874 3.39946 14.8074C2.35193 14.2275 1.52348 13.3817 0.914107 12.2701C0.304732 11.1585 4.3869e-05 9.8073 4.3869e-05 8.21641C4.3869e-05 6.61407 0.304732 5.25586 0.914107 4.1418C1.52348 3.02774 2.35193 2.18158 3.39946 1.60333C4.44699 1.02507 5.62218 0.735943 6.92505 0.735943C8.22792 0.735943 9.40148 1.02507 10.4458 1.60333C11.49 2.18158 12.3177 3.02774 12.9288 4.1418C13.5398 5.25586 13.8454 6.61407 13.8454 8.21641C13.8454 9.81225 13.5398 11.166 12.9288 12.2775C12.3177 13.3891 11.49 14.2337 10.4458 14.8111C9.40148 15.3886 8.22792 15.6773 6.92505 15.6773ZM6.92505 12.6523C7.6326 12.6523 8.23982 12.4821 8.74672 12.1416C9.25362 11.8011 9.64327 11.3005 9.91566 10.6398C10.1881 9.97917 10.3243 9.17136 10.3243 8.21641C10.3243 7.25339 10.1881 6.44031 9.91566 5.77716C9.64327 5.11401 9.25362 4.61219 8.74672 4.2717C8.23982 3.93121 7.6326 3.76096 6.92505 3.76096C6.22089 3.76096 5.61496 3.9316 5.10728 4.27287C4.5996 4.61415 4.20833 5.11636 3.93346 5.77951C3.65859 6.44266 3.52116 7.25496 3.52116 8.21641C3.52116 9.17136 3.65859 9.97877 3.93346 10.6387C4.20833 11.2986 4.5996 11.7991 5.10728 12.1404C5.61496 12.4817 6.22089 12.6523 6.92505 12.6523ZM18.7395 15.6188C17.9791 15.6188 17.3144 15.4488 16.7454 15.109C16.1763 14.7691 15.736 14.2908 15.4243 13.6738C15.1125 13.0569 14.9567 12.3365 14.9567 11.5125V4.56407H18.3622V10.8539C18.3622 11.4661 18.5192 11.9468 18.8333 12.2959C19.1473 12.645 19.5838 12.8195 20.1426 12.8195C20.515 12.8195 20.8399 12.739 21.1172 12.5779C21.3946 12.4169 21.6116 12.1846 21.7684 11.8812C21.9252 11.5779 22.0036 11.2159 22.0036 10.7953V4.56407H25.4114V15.482H22.2055L22.1461 12.7242H22.2915C22.0222 13.5979 21.6014 14.2988 21.0291 14.8268C20.4569 15.3548 19.6937 15.6188 18.7395 15.6188ZM26.6618 15.482V4.56407H30.0673V15.482H26.6618ZM28.3594 3.28907C27.874 3.28907 27.4589 3.128 27.1141 2.80586C26.7693 2.48373 26.5969 2.09716 26.5969 1.64616C26.5969 1.18596 26.7693 0.796552 27.1141 0.477931C27.4589 0.15931 27.874 -4.76837e-07 28.3594 -4.76837e-07C28.845 -4.76837e-07 29.2605 0.159045 29.606 0.477136C29.9515 0.795227 30.1243 1.18477 30.1243 1.64577C30.1243 2.09756 29.9515 2.48438 29.606 2.80626C29.2605 3.12814 28.845 3.28907 28.3594 3.28907ZM31.3399 15.482V13.5203L36.4313 7.29689V7.22658H31.5055V4.56407H40.493V6.72502L35.7704 12.7492V12.8195H40.6735V15.482H31.3399ZM41.9539 15.482V0.931255H45.3977V6.6414H51.2086V0.931255H54.6524V15.482H51.2086V9.4547H45.3977V15.482H41.9539ZM59.7004 15.6188C58.94 15.6188 58.2753 15.4488 57.7063 15.109C57.1373 14.7691 56.6969 14.2908 56.3852 13.6738C56.0735 13.0569 55.9176 12.3365 55.9176 11.5125V4.56407H59.3231V10.8539C59.3231 11.4661 59.4801 11.9468 59.7942 12.2959C60.1083 12.645 60.5447 12.8195 61.1036 12.8195C61.476 12.8195 61.8008 12.739 62.0782 12.5779C62.3555 12.4169 62.5726 12.1846 62.7293 11.8812C62.8861 11.5779 62.9645 11.2159 62.9645 10.7953V4.56407H66.3723V15.482H63.1665L63.1071 12.7242H63.2524C62.9831 13.5979 62.5624 14.2988 61.9901 14.8268C61.4178 15.3548 60.6546 15.6188 59.7004 15.6188ZM74.168 15.6422C73.6165 15.6422 73.1378 15.5494 72.7319 15.3637C72.326 15.178 71.9894 14.9387 71.7219 14.6459C71.4545 14.3531 71.249 14.0414 71.1055 13.7109H70.9844V15.482H67.6227V0.931255H71.0282V6.43829H71.1055C71.2441 6.10938 71.4438 5.79063 71.7048 5.48204C71.9657 5.17344 72.3008 4.92051 72.71 4.72325C73.1193 4.52598 73.6144 4.42735 74.1954 4.42735C74.9633 4.42735 75.6767 4.628 76.3354 5.0293C76.9941 5.4306 77.5266 6.04538 77.9329 6.87364C78.3391 7.70189 78.5422 8.75651 78.5422 10.0375C78.5422 11.2706 78.3469 12.3029 77.9563 13.1344C77.5657 13.9659 77.0398 14.5917 76.3786 15.0119C75.7174 15.4321 74.9805 15.6422 74.168 15.6422ZM73.0063 12.9789C73.4474 12.9789 73.8183 12.8568 74.119 12.6127C74.4196 12.3685 74.6484 12.0247 74.8053 11.5811C74.9622 11.1374 75.0407 10.6214 75.0407 10.0328C75.0407 9.44089 74.9626 8.92468 74.8065 8.48419C74.6504 8.0437 74.422 7.70132 74.1213 7.45705C73.8207 7.21278 73.449 7.09064 73.0063 7.09064C72.5732 7.09064 72.2031 7.21044 71.8958 7.45002C71.5885 7.6896 71.3539 8.02886 71.1921 8.46779C71.0302 8.90672 70.9493 9.42839 70.9493 10.0328C70.9493 10.6273 71.0306 11.1448 71.1932 11.5852C71.3559 12.0255 71.5912 12.3679 71.8993 12.6123C72.2073 12.8567 72.5764 12.9789 73.0063 12.9789Z" fill="#4F46E5"/>
</svg>
