<svg width="113" height="28" viewBox="0 0 113 28" fill="none" xmlns="http://www.w3.org/2000/svg">
<path d="M12 17C12.2833 17 12.5292 16.8958 12.7375 16.6875C12.9458 16.4792 13.05 16.2333 13.05 15.95C13.05 15.6667 12.9458 15.4208 12.7375 15.2125C12.5292 15.0042 12.2833 14.9 12 14.9C11.7167 14.9 11.4708 15.0042 11.2625 15.2125C11.0542 15.4208 10.95 15.6667 10.95 15.95C10.95 16.2333 11.0542 16.4792 11.2625 16.6875C11.4708 16.8958 11.7167 17 12 17ZM11.25 13.8H12.75C12.75 13.3167 12.8 12.9625 12.9 12.7375C13 12.5125 13.2333 12.2167 13.6 11.85C14.1 11.35 14.4333 10.9458 14.6 10.6375C14.7667 10.3292 14.85 9.96667 14.85 9.55C14.85 8.8 14.5875 8.1875 14.0625 7.7125C13.5375 7.2375 12.85 7 12 7C11.3167 7 10.7208 7.19167 10.2125 7.575C9.70417 7.95833 9.35 8.46667 9.15 9.1L10.5 9.65C10.65 9.23333 10.8542 8.92083 11.1125 8.7125C11.3708 8.50417 11.6667 8.4 12 8.4C12.4 8.4 12.725 8.5125 12.975 8.7375C13.225 8.9625 13.35 9.26667 13.35 9.65C13.35 9.88333 13.2833 10.1042 13.15 10.3125C13.0167 10.5208 12.7833 10.7833 12.45 11.1C11.9 11.5833 11.5625 11.9625 11.4375 12.2375C11.3125 12.5125 11.25 13.0333 11.25 13.8ZM6 20C5.45 20 4.97917 19.8042 4.5875 19.4125C4.19583 19.0208 4 18.55 4 18V6C4 5.45 4.19583 4.97917 4.5875 4.5875C4.97917 4.19583 5.45 4 6 4H18C18.55 4 19.0208 4.19583 19.4125 4.5875C19.8042 4.97917 20 5.45 20 6V18C20 18.55 19.8042 19.0208 19.4125 19.4125C19.0208 19.8042 18.55 20 18 20H6ZM6 18H18V6H6V18ZM2 24C1.45 24 0.979167 23.8042 0.5875 23.4125C0.195833 23.0208 0 22.55 0 22V8H2V22H16V24H2ZM6 6V18V6Z" fill="#494BD6"/>
<path d="M34.7871 15.9957H37.3324L38.6793 17.7238L39.8805 19.134L42.313 22.209H39.5355L37.8691 20.1434L37.0582 18.9847L34.7871 15.9957ZM35.709 21.1953C34.4233 21.1953 33.2674 20.9021 32.2414 20.3157C31.2154 19.7293 30.4048 18.8796 29.8097 17.7666C29.2147 16.6536 28.9172 15.3095 28.9172 13.7344C28.9172 12.1492 29.2147 10.7992 29.8097 9.68447C30.4048 8.56969 31.2154 7.71923 32.2414 7.1331C33.2674 6.54697 34.4233 6.25391 35.709 6.25391C36.9947 6.25391 38.1489 6.54697 39.1717 7.1331C40.1945 7.71923 41.0035 8.56969 41.5989 9.68447C42.1942 10.7992 42.4918 12.1492 42.4918 13.7344C42.4918 15.313 42.1942 16.6589 41.5989 17.7719C41.0035 18.8849 40.1945 19.7337 39.1717 20.3184C38.1489 20.903 36.9947 21.1953 35.709 21.1953ZM35.709 18.5484C36.4624 18.5484 37.1204 18.3638 37.6832 17.9947C38.2459 17.6255 38.6839 17.0823 38.9971 16.3651C39.3103 15.6479 39.4669 14.7709 39.4669 13.7344C39.4669 12.6883 39.3103 11.8058 38.9971 11.0868C38.6839 10.3678 38.2459 9.82369 37.6832 9.45455C37.1204 9.08542 36.4624 8.90085 35.709 8.90085C34.9561 8.90085 34.2976 9.08616 33.7333 9.4568C33.1691 9.82743 32.7295 10.3722 32.4145 11.0912C32.0995 11.8102 31.9421 12.6913 31.9421 13.7344C31.9421 14.7709 32.0995 15.6471 32.4145 16.3629C32.7295 17.0786 33.1691 17.6218 33.7333 17.9924C34.2976 18.3631 34.9561 18.5484 35.709 18.5484ZM48.5439 21.1367C47.7907 21.1367 47.1313 20.9722 46.5659 20.6431C46.0005 20.314 45.5623 19.8417 45.2512 19.2262C44.9402 18.6107 44.7847 17.8773 44.7847 17.0262V10.082H47.7133V16.5158C47.7133 17.1939 47.889 17.7258 48.2403 18.1114C48.5916 18.497 49.076 18.6898 49.6936 18.6898C50.1089 18.6898 50.475 18.5996 50.7917 18.4192C51.1084 18.2388 51.3574 17.9772 51.5385 17.6344C51.7196 17.2917 51.8101 16.8814 51.8101 16.4035V10.082H54.7432V21H51.9734L51.9312 18.2744H52.1023C51.813 19.1911 51.3751 19.8973 50.7885 20.3931C50.2019 20.8888 49.4537 21.1367 48.5439 21.1367ZM57.2359 21V10.082H60.1645V21H57.2359ZM58.6994 8.65882C58.2584 8.65882 57.8805 8.51139 57.5658 8.21653C57.2511 7.92168 57.0937 7.56786 57.0937 7.15506C57.0937 6.73384 57.2511 6.37753 57.5658 6.08612C57.8805 5.79471 58.2584 5.649 58.6994 5.649C59.1424 5.649 59.5216 5.79452 59.8368 6.08555C60.152 6.37659 60.3096 6.733 60.3096 7.15479C60.3096 7.56814 60.152 7.92215 59.8368 8.21682C59.5216 8.51148 59.1424 8.65882 58.6994 8.65882ZM62.5754 21V19.2273L67.9654 12.527V12.446H62.7496V10.082H71.5073V12.0217L66.4302 18.555V18.6361H71.692V21H62.5754ZM74.1781 21V6.44922H77.1622V12.3269H83.5015V6.44922H86.4856V21H83.5015V14.8008H77.1622V21H74.1781ZM92.8115 21.1367C92.0582 21.1367 91.3989 20.9722 90.8335 20.6431C90.268 20.314 89.8298 19.8417 89.5188 19.2262C89.2078 18.6107 89.0523 17.8773 89.0523 17.0262V10.082H91.9809V16.5158C91.9809 17.1939 92.1566 17.7258 92.5079 18.1114C92.8592 18.497 93.3436 18.6898 93.9612 18.6898C94.3765 18.6898 94.7426 18.5996 95.0593 18.4192C95.376 18.2388 95.6249 17.9772 95.806 17.6344C95.9872 17.2917 96.0777 16.8814 96.0777 16.4035V10.082H99.0108V21H96.241L96.1988 18.2744H96.3699C96.0806 19.1911 95.6426 19.8973 95.056 20.3931C94.4695 20.8888 93.7213 21.1367 92.8115 21.1367ZM107.621 21.1816C107.03 21.1816 106.528 21.0813 106.118 20.8806C105.707 20.6799 105.373 20.4316 105.117 20.1359C104.861 19.8402 104.664 19.5458 104.527 19.2525H104.384V21H101.503V6.44922H104.432V11.9197H104.527C104.661 11.6295 104.853 11.3319 105.102 11.0269C105.352 10.7218 105.682 10.4653 106.094 10.2573C106.505 10.0493 107.02 9.94531 107.638 9.94531C108.447 9.94531 109.187 10.1538 109.855 10.5709C110.524 10.9879 111.06 11.6128 111.462 12.4453C111.865 13.2779 112.066 14.316 112.066 15.5598C112.066 16.7714 111.871 17.7951 111.481 18.6309C111.09 19.4667 110.559 20.1008 109.889 20.5331C109.218 20.9655 108.462 21.1816 107.621 21.1816ZM106.72 18.8341C107.231 18.8341 107.66 18.6941 108.006 18.4142C108.353 18.1343 108.615 17.7467 108.794 17.2515C108.972 16.7564 109.061 16.1894 109.061 15.5508C109.061 14.9116 108.973 14.3474 108.796 13.8582C108.619 13.369 108.357 12.9858 108.011 12.7086C107.664 12.4314 107.234 12.2928 106.72 12.2928C106.218 12.2928 105.792 12.4269 105.441 12.6952C105.091 12.9634 104.825 13.3406 104.643 13.8268C104.461 14.313 104.37 14.8876 104.37 15.5508C104.37 16.2069 104.462 16.7809 104.645 17.2728C104.829 17.7647 105.096 18.1479 105.448 18.4224C105.8 18.6969 106.224 18.8341 106.72 18.8341Z" fill="#0F172A"/>
</svg>
